<svg xmlns="http://www.w3.org/2000/svg" xmlns:xlink="http://www.w3.org/1999/xlink" width="144" height="28" viewBox="0 0 144 28" fill="none"><g opacity="1" transform="translate(4 2)  rotate(0)"><g id="矩形 2" filter="url(#filter_2)"><path id="矩形 2" fill-rule="evenodd" style="fill:#FFFFFF" opacity="1" d="M50.4 0C53.56 0 55.14 0 56.21 0.42Q56.4951 0.532857 56.7671 0.67418Q57.0392 0.815504 57.2954 0.983822Q57.5517 1.15214 57.7894 1.3457Q58.0272 1.53926 58.244 1.75604Q58.4608 1.97283 58.6543 2.21058Q58.8479 2.44833 59.0162 2.70458Q59.1845 2.96082 59.3258 3.23288Q59.4671 3.50495 59.58 3.79C60 4.86 60 6.44 60 9.6L60 10.4C60 13.56 60 15.14 59.58 16.21Q59.4671 16.4951 59.3258 16.7671Q59.1845 17.0392 59.0162 17.2954Q58.8479 17.5517 58.6543 17.7894Q58.4607 18.0272 58.244 18.244Q58.0272 18.4607 57.7894 18.6543Q57.5517 18.8479 57.2954 19.0162Q57.0392 19.1845 56.7671 19.3258Q56.4951 19.4671 56.21 19.58C55.14 20 53.56 20 50.4 20L9.6 20C6.44 20 4.86 20 3.79 19.58Q3.50495 19.4671 3.23288 19.3258Q2.96082 19.1845 2.70458 19.0162Q2.44833 18.8479 2.21058 18.6543Q1.97283 18.4607 1.75604 18.244Q1.53926 18.0272 1.3457 17.7894Q1.15214 17.5517 0.983821 17.2954Q0.815503 17.0392 0.67418 16.7671Q0.532856 16.4951 0.42 16.21C0 15.14 0 13.56 0 10.4L0 9.6C0 6.44 0 4.86 0.42 3.79Q0.532856 3.50495 0.67418 3.23288Q0.815503 2.96082 0.983821 2.70458Q1.15214 2.44833 1.3457 2.21058Q1.53926 1.97283 1.75604 1.75604Q1.97283 1.53926 2.21058 1.3457Q2.44833 1.15214 2.70458 0.983821Q2.96082 0.815503 3.23288 0.67418Q3.50495 0.532857 3.79 0.42C4.86 0 6.44 0 9.6 0L50.4 0Z"></path></g><g id="并集" filter="url(#filter_4)"><path id="并集" fill-rule="evenodd" style="fill:#FFFFFF" opacity="1" d="M132.767,0.67418c0.18133,0.09422 0.35733,0.19743 0.528,0.30964c0.17133,0.11221 0.336,0.23284 0.494,0.36188c0.15867,0.12904 0.31033,0.26582 0.455,0.41034c0.14467,0.14453 0.28133,0.29604 0.41,0.45454c0.12933,0.1585 0.25,0.32316 0.362,0.49399c0.11267,0.17083 0.216,0.34694 0.31,0.52831c0.094,0.18138 0.17867,0.36709 0.254,0.55712c0.42,1.07 0.42,2.65 0.42,5.81v0.8c0,3.16 0,4.74 -0.42,5.81c-0.07533,0.19007 -0.16,0.37577 -0.254,0.5571c-0.09467,0.1814 -0.198,0.3575 -0.31,0.5283c-0.112,0.17087 -0.23267,0.33553 -0.362,0.494c-0.12867,0.15853 -0.26533,0.31007 -0.41,0.4546c-0.14467,0.14447 -0.29633,0.28123 -0.455,0.4103c-0.158,0.12907 -0.32267,0.2497 -0.494,0.3619c-0.17067,0.1122 -0.34667,0.2154 -0.528,0.3096c-0.18133,0.0942 -0.367,0.17893 -0.557,0.2542c-1.07,0.42 -2.65,0.42 -5.81,0.42h-50.8c-3.16,0 -4.74,0 -5.81,-0.42c-0.19,-0.07527 -0.3757,-0.16 -0.5571,-0.2542c-0.1814,-0.0942 -0.3575,-0.1974 -0.5283,-0.3096c-0.17087,-0.1122 -0.33553,-0.23283 -0.494,-0.3619c-0.15853,-0.12907 -0.31007,-0.26583 -0.4546,-0.4103c-0.14447,-0.14453 -0.28123,-0.29607 -0.4103,-0.4546c-0.12907,-0.15847 -0.2497,-0.32313 -0.3619,-0.494c-0.1122,-0.1708 -0.2154,-0.3469 -0.3096,-0.5283c-0.0942,-0.18133 -0.17893,-0.36703 -0.2542,-0.5571c-0.2911,-0.7417 -0.3804,-1.7283 -0.4079,-3.3163l-5.0121,-2.8937l5.0121,-2.89367c0.0275,-1.58801 0.1168,-2.57468 0.4079,-3.31633c0.07527,-0.19003 0.16,-0.37574 0.2542,-0.55712c0.0942,-0.18137 0.1974,-0.35747 0.3096,-0.5283c0.1122,-0.17083 0.23283,-0.3355 0.3619,-0.494c0.12907,-0.1585 0.26583,-0.31001 0.4103,-0.45454c0.14453,-0.14452 0.29607,-0.2813 0.4546,-0.41034c0.15847,-0.12904 0.32313,-0.24967 0.494,-0.36188c0.1708,-0.11221 0.3469,-0.21543 0.5283,-0.30964c0.1814,-0.09422 0.3671,-0.17894 0.5571,-0.25418c1.07,-0.42 2.65,-0.42 5.81,-0.42h50.8c3.16,0 4.74,0 5.81,0.42c0.19,0.07524 0.37567,0.15996 0.557,0.25418z"></path></g><g opacity="1" transform="translate(22 2)  rotate(0)"><text><tspan x="0" y="13.649999999999999" font-size="13" line-height="0" fill="#000000" opacity="1" font-family="AlimamaShuHeiTi-Regular" font-weight="Regular" letter-spacing="0" >A小屋</tspan></text></g><g opacity="1" transform="translate(5 3)  rotate(0)"><mask id="bg-mask-0" fill="white"><use xlink:href="#path_0"></use></mask><g mask="url(#bg-mask-0)" ><path id="路径 1" fill-rule="evenodd" style="fill:#000000" opacity="1" d="M12.295,2.19c0.47,0.02 0.83,0.41 0.83,0.87v1.31c0,0.49 -0.39,0.88 -0.88,0.88h-0.43c0,0.03 0,0.06 0,0.1l-0.88,7.87c-0.05,0.45 -0.42,0.78 -0.87,0.78h-6.13c-0.45,0 -0.82,-0.33 -0.87,-0.78l-0.88,-7.87c0,-0.04 0,-0.07 0,-0.1h-0.43c-0.49,0 -0.88,-0.39 -0.88,-0.88v-1.31c0,-0.46 0.36,-0.84 0.82,-0.87l0.54,-1.59c0.12,-0.36 0.45,-0.6 0.83,-0.6h7.87c0.38,0 0.71,0.24 0.83,0.6zM2.625,2.19h8.75l-0.44,-1.32h-7.87zM10.065,13.12l0.14,-1.31h-6.41l0.14,1.31zM10.745,7h-7.49l0.49,4.37h6.51zM10.935,5.25h-7.87l0.14,1.31h7.58zM12.245,3.06h-10.49v1.31h10.49z"></path></g></g><g opacity="1" transform="translate(68 1)  rotate(0)"><text><tspan x="0" y="13.649999999999999" font-size="13" line-height="0" fill="#000000" opacity="1" font-family="AlimamaShuHeiTi-Regular" font-weight="Regular" letter-spacing="0" >下班休息啦</tspan></text></g></g><defs><filter id="filter_2" x="-4" y="-4" width="68" height="28" filterUnits="userSpaceOnUse" color-interpolation-filters="sRGB"><feFlood flood-opacity="0" result="BackgroundImageFix"/>
          <feColorMatrix in="SourceAlpha" type="matrix" values="0 0 0 0 0 0 0 0 0 0 0 0 0 0 0 0 0 0 127 0"/>
          
          <feOffset dx="0" dy="2"/>
          <feGaussianBlur stdDeviation="2"/>
          <feColorMatrix type="matrix" values="0 0 0 0 0 0 0 0 0 0 0 0 0 0 0 0 0 0 0.25 0"/>
          <feBlend mode="normal" in2="BackgroundImageFix" result="effect1_Shadow"/>
          <feBlend mode="normal" in="SourceGraphic" in2="effect1_Shadow" result="shape"/></filter><filter id="filter_4" x="57" y="-4" width="83" height="28" filterUnits="userSpaceOnUse" color-interpolation-filters="sRGB"><feFlood flood-opacity="0" result="BackgroundImageFix"/>
          <feColorMatrix in="SourceAlpha" type="matrix" values="0 0 0 0 0 0 0 0 0 0 0 0 0 0 0 0 0 0 127 0"/>
          
          <feOffset dx="0" dy="2"/>
          <feGaussianBlur stdDeviation="2"/>
          <feColorMatrix type="matrix" values="0 0 0 0 0 0 0 0 0 0 0 0 0 0 0 0 0 0 0.25 0"/>
          <feBlend mode="normal" in2="BackgroundImageFix" result="effect1_Shadow"/>
          <feBlend mode="normal" in="SourceGraphic" in2="effect1_Shadow" result="shape"/></filter><rect id="path_0" x="0" y="0" width="14" height="14" /></defs></svg>