<svg xmlns="http://www.w3.org/2000/svg" version="1.1" xmlns:xlink="http://www.w3.org/1999/xlink" xmlns:svgjs="http://svgjs.dev/svgjs" width="100%" height="100%" viewBox="0 0 1000 600"><rect width="1000" height="600" x="0" y="0" fill="#295f2d"/><g><circle r="166.66666666666666" cx="397.116221110026" cy="419.33840823022524" fill="#ffe67c" transform="matrix(0.5424180828628374,0,0,0.5424180828628375,0,72.54326031374241)"/><path d="M458.29582083153656 462.2769411272075L493.31210266963933 472.5840593028085L405.94589781776165 494.33836064408837L428.51453129481126 470.7925286041149Q424.25673755635756 460.81114328282183 419.9291439205522 450.82975796152874Q415.6015502847468 440.84837264023565 411.01802369198515 430.86698731894256L411.01802369198515 430.86698731894256Q399.2451076719984 431.6813194547124 387.54199154936344 431.77438598451465Q375.8388754267284 431.8441858818664 364.0659594067417 432.6585180176362L364.0659594067417 432.6585180176362Q361.7858294265862 436.9163117560899 359.5754993437823 441.10430559719185Q357.3651692609785 445.2690328058433 355.0617726483724 449.52682654429697L355.0617726483724 449.52682654429697L384.84306218509766 468.97773127297074L300.9203189359039 463.41700611728527L341.1715930753841 446.40909779592107L382.8886650592501 366.7441482851809L338.86819646277803 344.3383812352853L401.68810407930795 346.9442440697487L458.29582083153656 462.2769411272075ZM372.907279737957 415.1620104148101L405.1315656819918 416.6278082591958Q401.362371225 408.4612202690469 397.43031034085425 400.43423207360144Q393.52151608915904 392.4305105106065 389.75232163216725 384.24065588800704L389.75232163216725 384.24065588800704Q385.49452789371355 392.10477765629855 381.32980068506214 399.71296646763386Q377.1418068439601 407.3211552789691 372.907279737957 415.1620104148101L372.907279737957 415.1620104148101Z " fill="#295f2d" transform="matrix(0.5424180828628374,0,0,0.5424180828628375,0,72.54326031374241)"/><path d="M777.1264482958178 467.85195771735437L806.0539182191524 476.36682095724626L733.8794002376765 494.338372039185L752.5236831782973 474.8868108681454Q749.0062566029019 466.64104037172643 745.4311672967622 458.3952698753075Q741.8560779906225 450.14949937888855 738.0695586717541 441.9037288824696L738.0695586717541 441.9037288824696Q728.3437780862344 442.5764607411518 718.6756602314587 442.65334438214404Q709.0075423766831 442.71100711288824 699.2817617911633 443.38373897157044L699.2817617911633 443.38373897157044Q697.3981125868531 446.9011655469659 695.5721261132871 450.3609293916172Q693.7461396397212 453.8014723260205 691.8432695251629 457.318898901416L691.8432695251629 457.318898901416L716.4460346426833 473.38757986879654L647.1162113779208 468.7937823195095L680.3683861070695 454.74329692817554L714.8314781818461 388.9309002388084L678.4655159925112 370.4211636699239L730.3619736622809 372.57390561770694L777.1264482958178 467.85195771735437ZM706.5857076854272 428.92961446502716L733.2066683789942 430.14053181065515Q730.0928809188081 423.3939923135851 726.8445470868854 416.7627782780034Q723.6154341652109 410.1507851526698 720.5016467050247 403.38502474535164L720.5016467050247 403.38502474535164Q716.9842201296292 409.8816924091969 713.5436771952259 416.16693006031346Q710.0839133505747 422.45216771143004 706.5857076854272 428.92961446502716L706.5857076854272 428.92961446502716ZM814.837874202517 458.26072350357106L836.3268518598513 471.36938429274994L774.8199390660502 473.65667261226935L797.9426940944699 458.93345536225326L793.4834429169192 356.75509648355126L761.7112782768713 345.01112032198483L818.8934862648583 344.33838846330264L814.837874202517 458.26072350357106ZM904.6956296122108 472.5803016383779L933.8921922790182 479.4806084174324L887.1277176454814 485.95805517102957L887.8196704144116 474.2140790094632Q883.8986047238068 475.15590361161827 879.8429926614656 475.5595427268276Q875.7873805991243 475.96318184203693 871.7317685367831 475.96318184203693L871.7317685367831 475.96318184203693Q863.755090783837 475.96318184203693 855.7207503001466 474.13719536847094Q847.6671889062084 472.31120889490495 841.2474048833553 468.25559683256375Q834.8276208605024 464.19998477022244 830.7720087981611 457.72253801662526Q826.7163967358199 451.2258703527801 826.7163967358199 441.9037288824696L826.7163967358199 441.9037288824696Q826.7163967358199 434.3306902447328 829.9647305677424 428.31454533708916Q833.2130643996651 422.3176213396935 838.4795938076343 418.0505792646236Q843.7461232156036 413.80275809980174 850.4349999819294 411.4962488700342Q857.1238767482553 409.2089605505147 864.1587298990463 409.2089605505147L864.1587298990463 409.2089605505147Q871.0590366781008 409.2089605505147 878.0170061878996 410.6120869986233Q884.9749756976984 412.03443435697994 891.0487833360862 414.87912907369326L891.0487833360862 414.87912907369326L893.4898389375901 368.2492008118928L863.6205444121006 354.0641690488224L919.3035214007386 357.98523473942726L904.6956296122108 472.5803016383779ZM888.6269486448302 462.18178919417585L890.2415051056676 427.4496043759263Q886.3204394150628 424.7394560309495 880.5157245201477 423.5285386853215Q874.7110096252328 422.3176213396935 869.9634447939612 422.3176213396935L869.9634447939612 422.3176213396935Q865.1005545012014 422.3176213396935 860.9872797081159 423.93217780053084Q856.8547840047825 425.5467342613681 853.9524265573249 428.5259753498178Q851.0500691098674 431.5052164382676 849.4355126490301 435.61849123135306Q847.8017352779448 439.7509869346865 847.8017352779448 444.61387722744644L847.8017352779448 444.61387722744644Q847.8017352779448 449.8804066354157 850.3773372511853 453.7245886850282Q852.9337183141776 457.58799164488886 856.9893303765189 460.086709977137Q861.0449424388601 462.5854283093852 865.90783273162 463.73868292426897Q870.7899439346279 464.8727166289047 875.2491951121785 464.8727166289047L875.2491951121785 464.8727166289047Q881.9957346092485 464.8727166289047 888.6269486448302 462.18178919417585L888.6269486448302 462.18178919417585ZM998.0900325075481 438.5208486788105L998.0900325075481 438.5208486788105Q998.0900325075481 439.48189419121366 998.032369776804 440.4237187933687Q997.9554861358117 441.36554339552384 997.9554861358117 442.3073679976789L997.9554861358117 442.3073679976789L942.9452410058558 443.38373897157044Q944.7135647486776 451.3604167245165 950.9219187588019 455.14693604338487Q957.1494936791744 458.93345536225326 964.9724041501358 458.93345536225326L964.9724041501358 458.93345536225326Q968.7589234690042 458.93345536225326 972.679989159609 458.3952698753075Q976.6010548502138 457.8570843883617 980.3875741690822 456.6269461324857Q984.1740934879506 455.41602878685774 987.5569736916098 453.45549594155534Q990.9206329850207 451.49496309625295 993.6307813299975 448.80403566152415L993.6307813299975 448.80403566152415Q992.1507712408967 454.47420418470267 988.6333446655012 458.7989089905168Q985.1159180901057 463.123613796331 980.3106905280899 465.96830851304424Q975.5246838763223 468.7937823195095 969.912178083888 470.21612967786615Q964.2996722914536 471.6384770362228 958.7640501400116 471.6384770362228L958.7640501400116 471.6384770362228Q951.1910115022747 471.6384770362228 944.3675883642125 468.9283286912459Q937.5441652261502 466.2374012565171 932.4698449206617 461.50905733549365Q927.414745525421 456.7807134144702 924.4355044369713 450.14949937888855Q921.4562633485216 443.51828534330684 921.4562633485216 435.6953748723453L921.4562633485216 435.6953748723453Q921.4562633485216 427.4496043759263 924.8391435521806 420.6838439686082Q928.2220237558397 413.93730447153814 933.7576459072818 409.1320769095224Q939.2932680587239 404.32684934750677 946.5972139529878 401.7704682845144Q953.9011598472516 399.194866311274 961.8778376001976 399.194866311274L961.8778376001976 399.194866311274Q970.258154468353 399.194866311274 976.9470312346789 402.3086537714601Q983.635908001005 405.4224412316463 988.3642519220282 410.82351701135195Q993.0925958430518 416.22459279105766 995.5913141752999 423.31710867259284Q998.0900325075481 430.409624554128 998.0900325075481 438.5208486788105ZM942.9452410058558 431.1015773230583L977.4083330806325 431.639762810004Q977.1392403371597 427.9877898628721 975.9283229915316 424.60490965921304Q974.7174056459037 421.222029455554 972.5454427878726 418.66564839256165Q970.3927008400896 416.0900464193212 967.3365761106476 414.5331526892281Q964.2996722914536 412.976258959135 960.2440602291124 412.976258959135L960.2440602291124 412.976258959135Q956.1884481667712 412.976258959135 953.2284279885694 414.47548995848393Q950.2491869001196 415.95550004758474 948.2309913240731 418.4542183798329Q946.1935748377784 420.9529367120811 944.9057738511583 424.27815418499597Q943.6179728645379 427.58415074766276 942.9452410058558 431.1015773230583L942.9452410058558 431.1015773230583ZM1091.349889031149 446.9011655469659L1091.349889031149 446.9011655469659Q1091.349889031149 454.47420418470267 1087.1597305970713 460.27891907961765Q1082.9695721629935 466.1028548847807 1076.684334511877 470.21612967786615Q1070.3990968607604 474.3486253811996 1062.96060459476 476.71279734171134Q1055.52211232876 479.07696930222306 1049.1792119468992 479.61515478916886L1049.1792119468992 479.61515478916886L988.6333446655012 484.74713782540164L1010.929600553254 466.7755867434629L1007.2776276061221 378.24407414088546L973.2181746465549 367.1728298380013L1032.9567636975341 359.33069845679165L1030.4003826345418 424.2012705440037Q1036.339643901193 422.45216771143004 1042.6248815523097 421.7602149424998Q1048.9101192034263 421.0874830838175 1055.1184732135505 421.0874830838175L1055.1184732135505 421.0874830838175Q1061.346048133923 421.0874830838175 1067.7658321567758 422.3752840704378Q1074.1856161796288 423.66308505705797 1079.4521455875981 426.6423261455077Q1084.7186749955672 429.60234632370936 1088.024671558234 434.54212025746153Q1091.349889031149 439.48189419121366 1091.349889031149 446.9011655469659ZM1067.4198557723107 450.6876848658343L1067.4198557723107 450.6876848658343Q1067.4198557723107 446.2284336882837 1065.8052993114734 442.9224371256169Q1064.1715219403882 439.6164405629501 1061.4037108646671 437.3868149741748Q1058.635899788946 435.15718938539953 1054.92626411107 434.00393477051574Q1051.1974075229457 432.850680155632 1047.007249088868 432.850680155632L1047.007249088868 432.850680155632Q1043.2207297699997 432.850680155632 1038.2232931055032 433.86938839877934Q1033.225856441007 434.8688757316786 1029.7084298656114 436.6371994745004L1029.7084298656114 436.6371994745004L1028.362966148247 468.7937823195095Q1030.1120689808208 469.06287506298236 1031.8035090826504 469.06287506298236Q1033.4949491844798 469.06287506298236 1035.1287265555652 469.06287506298236L1035.1287265555652 469.06287506298236Q1039.8570704765887 469.06287506298236 1045.450355358775 468.4670268452924Q1051.0628611512093 467.85195771735437 1055.9257514439691 465.96830851304424Q1060.8078626469771 464.06543839848604 1064.113859209644 460.41346545135406Q1067.4198557723107 456.7807134144702 1067.4198557723107 450.6876848658343ZM1180.1312734669511 464.46907751369537L1180.1312734669511 464.46907751369537L1137.2878645240191 466.2374012565171L1138.2296891261742 458.6643626187804Q1133.90498432036 459.2025481057261 1129.580279514546 459.2794317467184Q1125.2555747087317 459.3370944774626 1120.9308699029177 459.3370944774626L1120.9308699029177 459.3370944774626Q1117.0290251225608 459.3370944774626 1112.2814602912895 458.3952698753075Q1107.553116370266 457.4534452731524 1103.4975043079246 455.35836605611354Q1099.4418922455834 453.26328683907474 1096.7509648108546 449.8804066354157Q1094.040816465878 446.4975264317566 1094.040816465878 441.6346361389967L1094.040816465878 441.6346361389967Q1094.040816465878 436.23356035929106 1096.6164184391182 432.4470410404227Q1099.1727995021106 428.6605217215543 1103.1707488337076 426.35401249178676Q1107.1494772550566 424.06672417226724 1112.0123675478164 422.9903531983758Q1116.8944787508244 421.8947613142362 1121.4882763001115 421.8947613142362L1121.4882763001115 421.8947613142362Q1127.15844482329 421.8947613142362 1132.5595206029957 422.45216771143004Q1137.9605963827014 422.9903531983758 1143.5154394443916 423.3939923135851L1143.5154394443916 423.3939923135851Q1143.7845321878644 421.62566857076325 1143.9190785596008 419.7996820971973Q1144.0536249313373 417.9929165338794 1144.0536249313373 416.0900464193212L1144.0536249313373 416.0900464193212Q1144.0536249313373 412.4380734721893 1143.4385558033991 408.92064689679376Q1142.8427075857094 405.4224412316463 1141.2858138556162 402.65463015592525Q1139.728920125523 399.8675981699562 1136.961109049802 398.25304170911886Q1134.193297974081 396.6384852482816 1129.868593168267 396.6384852482816L1129.868593168267 396.6384852482816Q1125.8129811059257 396.6384852482816 1122.4877636330107 397.90706532465373Q1119.181767070344 399.194866311274 1116.6061650971035 402.3086537714601L1116.6061650971035 402.3086537714601Q1118.5090352116617 403.788663860561 1119.181767070344 405.61465033412696Q1119.8544989290262 407.4406368076929 1119.8544989290262 409.7471460374605L1119.8544989290262 409.7471460374605L1119.8544989290262 410.5544242678791Q1117.8363033529795 420.01111210992605 1107.9567554854752 420.01111210992605L1107.9567554854752 420.01111210992605Q1103.4975043079246 420.01111210992605 1100.6720305014594 416.83966191899566Q1097.827335784746 413.6682117280653 1097.827335784746 409.34350692225115L1097.827335784746 409.34350692225115Q1097.827335784746 403.38502474535164 1101.2102159884053 399.0603199395375Q1104.5930961920642 394.7356151337234 1109.5136492155684 391.91014132725815Q1114.4534231493205 389.0654466105448 1120.2004753134913 387.71998289318043Q1125.947527477662 386.355298265568 1130.810417770422 386.355298265568L1130.810417770422 386.355298265568Q1146.3409132508568 386.355298265568 1155.0672065034773 393.5246977880954Q1163.7742788458497 400.69409731062285 1163.7742788458497 416.8973246497398L1163.7742788458497 416.8973246497398Q1163.7742788458497 418.66564839256165 1163.7166161151056 420.4147512251353Q1163.6397324741133 422.1830749679571 1163.5051861023767 423.93217780053084L1163.5051861023767 423.93217780053084L1160.2760731807023 455.01238967164846Q1165.4080562169352 457.318898901416 1170.270946509695 459.7407335926719Q1175.1338368024549 462.18178919417585 1180.1312734669511 464.46907751369537ZM1139.8634664972597 447.70844377738456L1142.0162084450426 432.4470410404227Q1138.5180027798951 432.04340192521335 1135.0005762044998 431.56287916901175Q1131.4831496291042 431.1015773230583 1127.9657230537086 431.1015773230583L1127.9657230537086 431.1015773230583Q1125.678434734189 431.1015773230583 1123.4488091454139 431.56287916901175Q1121.2191835566387 432.04340192521335 1119.3931970830727 433.1197728991049Q1117.5672106095067 434.1961438729964 1116.471618725367 436.02213034656234Q1115.3952477514756 437.8481168201283 1115.3952477514756 440.5582651651052L1115.3952477514756 440.5582651651052Q1115.3952477514756 442.5764607411518 1116.3370723536307 444.1333544712449Q1117.2981178660339 445.69024820133797 1118.8357906858787 446.7666191752295Q1120.3926844159719 447.842990149121 1122.2186708895379 448.4003965463148Q1124.0446573631039 448.93858203326056 1125.8129811059257 448.93858203326056L1125.8129811059257 448.93858203326056Q1129.3111867710732 448.93858203326056 1132.9054969874608 448.53494291805123Q1136.4805862936005 448.13130380284196 1139.8634664972597 447.70844377738456L1139.8634664972597 447.70844377738456ZM1257.1686817411874 397.17667073522733L1257.1686817411874 397.17667073522733Q1257.1686817411874 402.71229288666945 1253.785801537528 406.28738219280916Q1250.4029213338688 409.8816924091969 1244.7327528106903 409.8816924091969L1244.7327528106903 409.8816924091969Q1240.5425943766127 409.8816924091969 1238.255306057093 408.3247986791038Q1235.9487968273256 406.7679049490107 1234.3919030972324 404.8073721037083Q1232.8350093671395 402.8468392584059 1231.2781156370465 401.2899455283128Q1229.7404428172013 399.7330517982197 1226.8957481004882 399.7330517982197L1226.8957481004882 399.7330517982197Q1221.8983114359917 399.7330517982197 1218.919070347542 402.9237228993982Q1215.9398292590922 406.0951730903285 1214.4598191699915 410.4198778961426L1214.4598191699915 410.4198778961426Q1214.325272798255 410.68897063961555 1214.2676100675108 412.976258959135Q1214.1907264265185 415.28276818890254 1214.056180054782 418.80019476429806Q1213.9216336830457 422.3176213396935 1213.7870873113093 426.50777977377123Q1213.6525409395726 430.6787172976009 1213.5179945678365 434.46523661646927Q1213.3834481960998 438.25175593533766 1213.2489018243634 441.1541133827951Q1213.114355452627 444.0756917405007 1213.114355452627 445.01751634265577L1213.114355452627 445.01751634265577L1245.9436701563181 456.91525978620666L1167.829890908191 464.8727166289047Q1174.864744058982 460.41346545135406 1181.899597209773 456.0310979147958Q1188.915229450316 451.6295094679894 1195.9500826011067 447.30480466217523L1195.9500826011067 447.30480466217523L1190.9526459366107 400.13669091342905L1160.8142586676481 392.0446876989946L1215.26709740041 380.14694425544366L1214.9980046569372 392.58287318594034Q1220.6873940903638 388.6618074953355 1226.6843180877595 385.8939964196145Q1232.700462995403 383.1069644336454 1240.004408889667 383.1069644336454L1240.004408889667 383.1069644336454Q1242.4454644911707 383.1069644336454 1245.001845554163 383.6643708308392Q1247.5774475274038 384.20255631778497 1249.8647358469232 385.27892729167644Q1252.1712450766906 386.355298265568 1253.9203479092644 388.18128473913396Q1255.6886716520862 390.00727121269995 1256.4959498825046 392.58287318594034L1256.4959498825046 392.58287318594034Q1257.1686817411874 395.00470787719627 1257.1686817411874 397.17667073522733ZM1341.7791286531597 464.46907751369537L1341.7791286531597 464.46907751369537L1298.9357197102277 466.2374012565171L1299.8775443123827 458.6643626187804Q1295.5528395065685 459.2025481057261 1291.2281347007543 459.2794317467184Q1286.9034298949405 459.3370944774626 1282.5787250891262 459.3370944774626L1282.5787250891262 459.3370944774626Q1278.6576593985214 459.3370944774626 1273.9293154774978 458.3952698753075Q1269.2009715564745 457.4534452731524 1265.1453594941331 455.35836605611354Q1261.0897474317917 453.26328683907474 1258.3795990868152 449.8804066354157Q1255.6886716520862 446.4975264317566 1255.6886716520862 441.6346361389967L1255.6886716520862 441.6346361389967Q1255.6886716520862 436.23356035929106 1258.2450527150786 432.4470410404227Q1260.8206546883189 428.6605217215543 1264.7993831096678 426.35401249178676Q1268.797332441265 424.06672417226724 1273.660222734025 422.9903531983758Q1278.5231130267848 421.8947613142362 1283.1169105760719 421.8947613142362L1283.1169105760719 421.8947613142362Q1288.7870790992506 421.8947613142362 1294.207375789204 422.45216771143004Q1299.60845156891 422.9903531983758 1305.144073720352 423.3939923135851L1305.144073720352 423.3939923135851Q1305.4131664638248 421.62566857076325 1305.547712835561 419.7996820971973Q1305.6822592072976 417.9929165338794 1305.6822592072976 416.0900464193212L1305.6822592072976 416.0900464193212Q1305.6822592072976 412.4380734721893 1305.0864109896079 408.92064689679376Q1304.4713418616698 405.4224412316463 1302.9144481315766 402.65463015592525Q1301.3575544014834 399.8675981699562 1298.5897433257628 398.25304170911886Q1295.8219322500418 396.6384852482816 1291.4972274442275 396.6384852482816L1291.4972274442275 396.6384852482816Q1287.441615381886 396.6384852482816 1284.1356188192194 397.90706532465373Q1280.8104013463044 399.194866311274 1278.254020283312 402.3086537714601L1278.254020283312 402.3086537714601Q1280.1376694876221 403.788663860561 1280.8104013463044 405.61465033412696Q1281.5023541152345 407.4406368076929 1281.5023541152345 409.7471460374605L1281.5023541152345 409.7471460374605L1281.5023541152345 410.5544242678791Q1279.4649376289399 420.01111210992605 1269.6046106716835 420.01111210992605L1269.6046106716835 420.01111210992605Q1265.1453594941331 420.01111210992605 1262.30066477742 416.83966191899566Q1259.4559700607065 413.6682117280653 1259.4559700607065 409.34350692225115L1259.4559700607065 409.34350692225115Q1259.4559700607065 403.38502474535164 1262.8388502643656 399.0603199395375Q1266.2217304680248 394.7356151337234 1271.1615044017767 391.91014132725815Q1276.0820574252807 389.0654466105448 1281.829109589452 387.71998289318043Q1287.5761617536223 386.355298265568 1292.4390520463826 386.355298265568L1292.4390520463826 386.355298265568Q1307.9887684370651 386.355298265568 1316.6958407794377 393.5246977880954Q1325.4221340320582 400.69409731062285 1325.4221340320582 416.8973246497398L1325.4221340320582 416.8973246497398Q1325.4221340320582 418.66564839256165 1325.3452503910657 420.4147512251353Q1325.2875876603216 422.1830749679571 1325.1530412885854 423.93217780053084L1325.1530412885854 423.93217780053084L1321.904707456663 455.01238967164846Q1327.0366904928956 457.318898901416 1331.8995807856554 459.7407335926719Q1336.7624710784153 462.18178919417585 1341.7791286531597 464.46907751369537ZM1301.49210077322 447.70844377738456L1303.6640636312513 432.4470410404227Q1300.1466370558555 432.04340192521335 1296.6292104804602 431.56287916901175Q1293.1117839050644 431.1015773230583 1289.594357329669 431.1015773230583L1289.594357329669 431.1015773230583Q1287.3070690101495 431.1015773230583 1285.0774434213745 431.56287916901175Q1282.847817832599 432.04340192521335 1281.021831359033 433.1197728991049Q1279.195844885467 434.1961438729964 1278.1194739115758 436.02213034656234Q1277.0431029376841 437.8481168201283 1277.0431029376841 440.5582651651052L1277.0431029376841 440.5582651651052Q1277.0431029376841 442.5764607411518 1277.9849275398392 444.1333544712449Q1278.9267521419943 445.69024820133797 1280.4836458720874 446.7666191752295Q1282.0405396021806 447.842990149121 1283.8665260757462 448.4003965463148Q1285.6925125493121 448.93858203326056 1287.441615381886 448.93858203326056L1287.441615381886 448.93858203326056Q1290.9590419572814 448.93858203326056 1294.5341312634214 448.53494291805123Q1298.1092205695609 448.13130380284196 1301.49210077322 447.70844377738456L1301.49210077322 447.70844377738456ZM1414.3380648395969 445.28660908612864L1432.3096159215356 454.2051114412298L1373.6666187546962 454.60875055643913L1398.9421157308984 444.8829699709193L1398.9421157308984 420.5492975968718Q1398.9421157308984 413.37989807434434 1395.347805514511 409.1320769095224Q1391.772716208371 404.88425574470057 1384.4687703141071 404.88425574470057L1384.4687703141071 404.88425574470057Q1380.8360182772235 404.88425574470057 1376.70352257389 406.0951730903285Q1372.5902477808045 407.3060904359565 1370.5528312945098 410.68897063961555L1370.5528312945098 410.68897063961555L1367.57359020606 436.90629221797326Q1368.9382748336725 437.9826631918648 1371.8406322811297 439.6164405629501Q1374.7429897285874 441.2309970237874 1377.8567771887738 442.84555348462465L1377.8567771887738 442.84555348462465Q1381.3742037641691 444.7484235991829 1385.4298158265105 446.7666191752295L1385.4298158265105 446.7666191752295L1329.8813852096087 447.03571191870236L1352.581280212571 437.71357044839186L1348.5256681502296 405.15334848817344Q1344.6046024596249 404.05775660403384 1339.4726194233922 402.65463015592525Q1334.3406363871595 401.23228279756864 1329.6122924661358 399.7330517982197L1329.6122924661358 399.7330517982197Q1324.1919957761825 398.11849533738246 1318.387280881267 396.36939250480873L1318.387280881267 396.36939250480873L1372.0520622938584 387.4316692394595L1371.3601095249282 395.67743973587847Q1376.088453445952 393.7937905315683 1381.5087501359058 391.91014132725815Q1386.9098259156112 390.00727121269995 1392.041808951844 390.00727121269995L1392.041808951844 390.00727121269995Q1404.3431915106044 390.00727121269995 1411.1089519179222 396.6384852482816Q1417.8554914149922 403.25047837361524 1417.8554914149922 415.68640730411187L1417.8554914149922 415.68640730411187Q1417.8554914149922 418.80019476429806 1417.5287359407753 422.64437681391064Q1417.18275955631 426.50777977377123 1416.6445740693644 430.409624554128Q1416.1063885824187 434.3306902447328 1415.4913194544806 438.19409320459346Q1414.8762503265425 442.038275254206 1414.3380648395969 445.28660908612864L1414.3380648395969 445.28660908612864ZM1451.2422125158773 463.6617992832767L1451.2422125158773 463.6617992832767Q1451.2422125158773 466.50649399999 1450.0312951702495 468.659235947773Q1448.8011569143737 470.83119880580415 1446.840624069071 472.2535461641608Q1444.8800912237689 473.65667261226935 1442.3813728915206 474.40628811194387Q1439.8826545592724 475.15590361161827 1437.32627349628 475.15590361161827L1437.32627349628 475.15590361161827Q1434.885217894776 475.15590361161827 1432.2519531907915 474.4831717529361Q1429.618688486807 473.7912189840058 1427.4467256287758 472.3880925358972Q1425.2939836809928 470.96574517754055 1423.9485199636283 468.87066596050175Q1422.583835336016 466.7755867434629 1422.583835336016 463.9308920267496L1422.583835336016 463.9308920267496Q1422.583835336016 460.95165093829985 1423.8716363226358 458.6643626187804Q1425.1594373092562 456.35785338901286 1427.254516526295 454.8201805691678Q1429.3495957433338 453.26328683907474 1431.9059768063262 452.4560086086561Q1434.481578779567 451.6295094679894 1437.1917271245434 451.6295094679894L1437.1917271245434 451.6295094679894Q1439.6135618157996 451.6295094679894 1442.1122801480478 452.5136713394003Q1444.6109984802956 453.39783321081114 1446.6484149665907 455.01238967164846Q1448.666610542637 456.6269461324857 1449.9544115292574 458.87579263150906Q1451.2422125158773 461.1054182202843 1451.2422125158773 463.6617992832767ZM1532.8734183394004 435.5608285006088L1532.8734183394004 435.5608285006088Q1533.007964711137 444.2102381122371 1530.5092463788887 450.95677760930715Q1528.0105280466405 457.72253801662526 1523.2053004846248 462.3163355659123Q1518.400072922609 466.91013311519936 1511.5766497845466 469.2743050757111Q1504.7532266464846 471.6384770362228 1496.372909778329 471.6384770362228L1496.372909778329 471.6384770362228Q1488.1271392819099 471.6384770362228 1480.9000770286384 468.9283286912459Q1473.673014775367 466.2374012565171 1468.3296017264056 461.2399645920208Q1463.0054095876922 456.2233070172764 1459.8916221275058 449.3422211484699Q1456.7778346673194 442.4419143694153 1456.7778346673194 433.9270511295235L1456.7778346673194 433.9270511295235Q1456.7778346673194 425.00854877442237 1460.2952612427152 417.70460288015846Q1463.8126878181106 410.4198778961426 1469.7519490847621 405.2878948599099Q1475.6912103514137 400.13669091342905 1483.4756790018791 397.368879837708Q1491.2409267420962 394.60106876198694 1499.755789981988 394.60106876198694L1499.755789981988 394.60106876198694Q1504.3495875312751 394.60106876198694 1509.827546951973 396.0810788510878Q1515.305506372671 397.58030985043666 1520.0915130244384 400.4057836569019Q1524.8967405864541 403.25047837361524 1528.0681907773846 407.4406368076929Q1531.2396409683151 411.6307952417706 1531.2396409683151 417.1664173932127L1531.2396409683151 417.1664173932127Q1531.2396409683151 422.3176213396935 1528.1450744183767 425.41218788963164Q1525.0312869581908 428.5259753498178 1519.899303921958 428.5259753498178L1519.899303921958 428.5259753498178Q1514.767320885725 428.5259753498178 1511.1153479385935 425.62361790236037Q1507.4633749914615 422.72126045490285 1507.4633749914615 417.4355101366856L1507.4633749914615 417.4355101366856Q1507.4633749914615 415.68640730411187 1507.7901304656784 413.72587445880947Q1508.1361068501437 411.7653416135071 1509.0779314522988 410.2853315244062L1509.0779314522988 410.2853315244062Q1506.7906431327792 408.38246140984796 1504.0804947878023 407.57518317942936Q1501.3703464428254 406.7679049490107 1498.5448726363602 406.7679049490107L1498.5448726363602 406.7679049490107Q1493.4128896001275 406.7679049490107 1489.8185793837397 409.2666232812589Q1486.2434900776002 411.7653416135071 1484.0138644888248 415.5518609323754Q1481.7842389000493 419.3383802512438 1480.8424142978943 423.98984053127504Q1479.8813687854913 428.6605217215543 1479.8813687854913 432.850680155632L1479.8813687854913 432.850680155632Q1479.8813687854913 438.1172095636012 1481.5151461565765 442.5187980104076Q1483.1297026174138 446.9011655469659 1486.2434900776002 450.0726157378963Q1489.357277537786 453.26328683907474 1493.6819823436003 455.08927331264067Q1498.0066871494146 456.91525978620666 1503.5423093008567 456.91525978620666L1503.5423093008567 456.91525978620666Q1508.4051995936165 456.91525978620666 1512.7299043994303 455.01238967164846Q1517.0546092052446 453.1287404673383 1520.7065821523765 450.0726157378963Q1524.3585550995085 447.03571191870236 1527.3954589187024 443.249192599834Q1530.4323627378963 439.48189419121366 1532.8734183394004 435.5608285006088ZM1613.139939535311 435.5608285006088L1613.139939535311 435.5608285006088Q1613.2744859070472 444.2102381122371 1610.775767574799 450.95677760930715Q1608.2770492425507 457.72253801662526 1603.4910425907833 462.3163355659123Q1598.6858150287676 466.91013311519936 1591.862391890705 469.2743050757111Q1585.038968752643 471.6384770362228 1576.6586518844874 471.6384770362228L1576.6586518844874 471.6384770362228Q1568.4128813880684 471.6384770362228 1561.185819134797 468.9283286912459Q1553.9587568815255 466.2374012565171 1548.6153438325641 461.2399645920208Q1543.2719307836023 456.2233070172764 1540.158143323416 449.3422211484699Q1537.063576773478 442.4419143694153 1537.063576773478 433.9270511295235L1537.063576773478 433.9270511295235Q1537.063576773478 425.00854877442237 1540.5617824386254 417.70460288015846Q1544.0792090140208 410.4198778961426 1550.0376911909207 405.2878948599099Q1555.9769524575718 400.13669091342905 1563.7422001977893 397.368879837708Q1571.5266688482548 394.60106876198694 1580.0415320881466 394.60106876198694L1580.0415320881466 394.60106876198694Q1584.6353296374336 394.60106876198694 1590.0940681478833 396.0810788510878Q1595.5720275685812 397.58030985043666 1600.377255130597 400.4057836569019Q1605.1632617823648 403.25047837361524 1608.3539328835432 407.4406368076929Q1611.5253830744737 411.6307952417706 1611.5253830744737 417.1664173932127L1611.5253830744737 417.1664173932127Q1611.5253830744737 422.3176213396935 1608.4115956142873 425.41218788963164Q1605.2978081541014 428.5259753498178 1600.1658251178683 428.5259753498178L1600.1658251178683 428.5259753498178Q1595.0338420816356 428.5259753498178 1591.3818691345036 425.62361790236037Q1587.7298961873717 422.72126045490285 1587.7298961873717 417.4355101366856L1587.7298961873717 417.4355101366856Q1587.7298961873717 415.68640730411187 1588.075872571837 413.72587445880947Q1588.4218489563018 411.7653416135071 1589.3636735584569 410.2853315244062L1589.3636735584569 410.2853315244062Q1587.0571643286894 408.38246140984796 1584.3662368939608 407.57518317942936Q1581.656088548984 406.7679049490107 1578.8113938322704 406.7679049490107L1578.8113938322704 406.7679049490107Q1573.6794107960377 406.7679049490107 1570.1043214898982 409.2666232812589Q1566.5100112735104 411.7653416135071 1564.280385684735 415.5518609323754Q1562.05076009596 419.3383802512438 1561.108935493805 423.98984053127504Q1560.1671108916498 428.6605217215543 1560.1671108916498 432.850680155632L1560.1671108916498 432.850680155632Q1560.1671108916498 438.1172095636012 1561.7816673524867 442.5187980104076Q1563.4154447235724 446.9011655469659 1566.5100112735104 450.0726157378963Q1569.6237987336967 453.26328683907474 1573.9485035395105 455.08927331264067Q1578.2732083453247 456.91525978620666 1583.8088304967669 456.91525978620666L1583.8088304967669 456.91525978620666Q1588.6909416997746 456.91525978620666 1593.0156465055888 455.01238967164846Q1597.340351311403 453.1287404673383 1600.9731033482872 450.0726157378963Q1604.6250762954191 447.03571191870236 1607.661980114613 443.249192599834Q1610.7181048440548 439.48189419121366 1613.139939535311 435.5608285006088Z " fill="#ffe67c" transform="matrix(0.5424180828628374,0,0,0.5424180828628375,0,72.54326031374241)"/></g></svg>